<?xml version="1.0" encoding="UTF-8" standalone="no"?>
<!DOCTYPE svg PUBLIC "-//W3C//DTD SVG 1.1//EN"
 "http://www.w3.org/Graphics/SVG/1.1/DTD/svg11.dtd">
<!-- Generated by graphviz version 5.0.0 (20220707.1540)
 -->
<!-- Title: dependencies Pages: 1 -->
<svg width="882pt" height="174pt"
 viewBox="0.00 0.00 882.00 173.80" xmlns="http://www.w3.org/2000/svg" xmlns:xlink="http://www.w3.org/1999/xlink">
<g id="graph0" class="graph" transform="scale(1 1) rotate(0) translate(4 169.8)">
<title>dependencies</title>
<polygon fill="white" stroke="transparent" points="-4,4 -4,-169.8 878,-169.8 878,4 -4,4"/>
<text text-anchor="middle" x="437" y="-8.2" font-family="sans-serif" font-size="14.00">dependencies</text>
<g id="clust1" class="cluster">
<title>cluster_UserModule</title>
<polygon fill="none" stroke="black" stroke-dasharray="1,5" points="8,-32.8 8,-157.8 866,-157.8 866,-32.8 8,-32.8"/>
</g>
<g id="clust7" class="cluster">
<title>cluster_UserModule_imports</title>
<polygon fill="none" stroke="black" points="594,-40.8 594,-92.8 858,-92.8 858,-40.8 594,-40.8"/>
</g>
<g id="clust2" class="cluster">
<title>cluster_UserModule_declarations</title>
<polygon fill="none" stroke="black" points="16,-40.8 16,-92.8 586,-92.8 586,-40.8 16,-40.8"/>
</g>
<!-- UserAddComponent -->
<g id="node1" class="node">
<title>UserAddComponent</title>
<polygon fill="#ffffb3" stroke="black" points="577.88,-84.8 446.12,-84.8 446.12,-48.8 577.88,-48.8 577.88,-84.8"/>
<text text-anchor="middle" x="512" y="-62.6" font-family="Times,serif" font-size="14.00">UserAddComponent</text>
</g>
<!-- UserModule -->
<g id="node5" class="node">
<title>UserModule</title>
<polygon fill="#8dd3c7" stroke="black" points="485.99,-149.8 482.99,-153.8 461.99,-153.8 458.99,-149.8 400.01,-149.8 400.01,-113.8 485.99,-113.8 485.99,-149.8"/>
<text text-anchor="middle" x="443" y="-127.6" font-family="Times,serif" font-size="14.00">UserModule</text>
</g>
<!-- UserAddComponent&#45;&gt;UserModule -->
<g id="edge1" class="edge">
<title>UserAddComponent&#45;&gt;UserModule</title>
<path fill="none" stroke="black" d="M466.03,-84.91C466.03,-84.91 466.03,-103.79 466.03,-103.79"/>
<polygon fill="black" stroke="black" points="462.53,-103.79 466.03,-113.79 469.53,-103.79 462.53,-103.79"/>
</g>
<!-- UserComponent -->
<g id="node2" class="node">
<title>UserComponent</title>
<polygon fill="#ffffb3" stroke="black" points="427.77,-84.8 320.23,-84.8 320.23,-48.8 427.77,-48.8 427.77,-84.8"/>
<text text-anchor="middle" x="374" y="-62.6" font-family="Times,serif" font-size="14.00">UserComponent</text>
</g>
<!-- UserComponent&#45;&gt;UserModule -->
<g id="edge2" class="edge">
<title>UserComponent&#45;&gt;UserModule</title>
<path fill="none" stroke="black" d="M413.94,-84.91C413.94,-84.91 413.94,-103.79 413.94,-103.79"/>
<polygon fill="black" stroke="black" points="410.44,-103.79 413.94,-113.79 417.44,-103.79 410.44,-103.79"/>
</g>
<!-- UserEditComponent -->
<g id="node3" class="node">
<title>UserEditComponent</title>
<polygon fill="#ffffb3" stroke="black" points="302.6,-84.8 171.4,-84.8 171.4,-48.8 302.6,-48.8 302.6,-84.8"/>
<text text-anchor="middle" x="237" y="-62.6" font-family="Times,serif" font-size="14.00">UserEditComponent</text>
</g>
<!-- UserEditComponent&#45;&gt;UserModule -->
<g id="edge3" class="edge">
<title>UserEditComponent&#45;&gt;UserModule</title>
<path fill="none" stroke="black" d="M237,-84.82C237,-102.17 237,-125.8 237,-125.8 237,-125.8 389.82,-125.8 389.82,-125.8"/>
<polygon fill="black" stroke="black" points="389.82,-129.3 399.82,-125.8 389.82,-122.3 389.82,-129.3"/>
</g>
<!-- UserListComponent -->
<g id="node4" class="node">
<title>UserListComponent</title>
<polygon fill="#ffffb3" stroke="black" points="153.55,-84.8 24.45,-84.8 24.45,-48.8 153.55,-48.8 153.55,-84.8"/>
<text text-anchor="middle" x="89" y="-62.6" font-family="Times,serif" font-size="14.00">UserListComponent</text>
</g>
<!-- UserListComponent&#45;&gt;UserModule -->
<g id="edge4" class="edge">
<title>UserListComponent&#45;&gt;UserModule</title>
<path fill="none" stroke="black" d="M89,-85.08C89,-106.12 89,-137.8 89,-137.8 89,-137.8 389.95,-137.8 389.95,-137.8"/>
<polygon fill="black" stroke="black" points="389.95,-141.3 399.95,-137.8 389.95,-134.3 389.95,-141.3"/>
</g>
<!-- SharedModule -->
<g id="node6" class="node">
<title>SharedModule</title>
<polygon fill="#8dd3c7" stroke="black" points="850.43,-84.8 847.43,-88.8 826.43,-88.8 823.43,-84.8 751.57,-84.8 751.57,-48.8 850.43,-48.8 850.43,-84.8"/>
<text text-anchor="middle" x="801" y="-62.6" font-family="Times,serif" font-size="14.00">SharedModule</text>
</g>
<!-- SharedModule&#45;&gt;UserModule -->
<g id="edge5" class="edge">
<title>SharedModule&#45;&gt;UserModule</title>
<path fill="none" stroke="black" d="M801,-85.08C801,-106.12 801,-137.8 801,-137.8 801,-137.8 496.18,-137.8 496.18,-137.8"/>
<polygon fill="black" stroke="black" points="496.18,-134.3 486.18,-137.8 496.18,-141.3 496.18,-134.3"/>
</g>
<!-- UserRoutingModule -->
<g id="node7" class="node">
<title>UserRoutingModule</title>
<polygon fill="#8dd3c7" stroke="black" points="733.6,-84.8 730.6,-88.8 709.6,-88.8 706.6,-84.8 602.4,-84.8 602.4,-48.8 733.6,-48.8 733.6,-84.8"/>
<text text-anchor="middle" x="668" y="-62.6" font-family="Times,serif" font-size="14.00">UserRoutingModule</text>
</g>
<!-- UserRoutingModule&#45;&gt;UserModule -->
<g id="edge6" class="edge">
<title>UserRoutingModule&#45;&gt;UserModule</title>
<path fill="none" stroke="black" d="M668,-84.82C668,-102.17 668,-125.8 668,-125.8 668,-125.8 496.12,-125.8 496.12,-125.8"/>
<polygon fill="black" stroke="black" points="496.12,-122.3 486.12,-125.8 496.12,-129.3 496.12,-122.3"/>
</g>
</g>
</svg>
