<?xml version="1.0" encoding="UTF-8" standalone="no"?>
<!DOCTYPE svg PUBLIC "-//W3C//DTD SVG 1.1//EN"
 "http://www.w3.org/Graphics/SVG/1.1/DTD/svg11.dtd">
<!-- Generated by graphviz version 5.0.0 (20220707.1540)
 -->
<!-- Title: dependencies Pages: 1 -->
<svg width="2122pt" height="253pt"
 viewBox="0.00 0.00 2122.00 252.80" xmlns="http://www.w3.org/2000/svg" xmlns:xlink="http://www.w3.org/1999/xlink">
<g id="graph0" class="graph" transform="scale(1 1) rotate(0) translate(4 248.8)">
<title>dependencies</title>
<polygon fill="white" stroke="transparent" points="-4,4 -4,-248.8 2118,-248.8 2118,4 -4,4"/>
<text text-anchor="middle" x="1057" y="-8.2" font-family="sans-serif" font-size="14.00">dependencies</text>
<g id="clust1" class="cluster">
<title>cluster_AppModule</title>
<polygon fill="none" stroke="black" stroke-dasharray="1,5" points="8,-32.8 8,-236.8 403,-236.8 403,-32.8 8,-32.8"/>
</g>
<g id="clust2" class="cluster">
<title>cluster_AppModule_declarations</title>
<polygon fill="none" stroke="black" points="273,-40.8 273,-92.8 395,-92.8 395,-40.8 273,-40.8"/>
</g>
<g id="clust4" class="cluster">
<title>cluster_AppModule_imports</title>
<polygon fill="none" stroke="black" points="16,-40.8 16,-92.8 265,-92.8 265,-40.8 16,-40.8"/>
</g>
<g id="clust6" class="cluster">
<title>cluster_AppModule_bootstrap</title>
<polygon fill="none" stroke="black" points="131,-176.8 131,-228.8 255,-228.8 255,-176.8 131,-176.8"/>
</g>
<g id="clust14" class="cluster">
<title>cluster_AuthModule</title>
<polygon fill="none" stroke="black" stroke-dasharray="1,5" points="411,-32.8 411,-160.8 958,-160.8 958,-32.8 411,-32.8"/>
</g>
<g id="clust15" class="cluster">
<title>cluster_AuthModule_declarations</title>
<polygon fill="none" stroke="black" points="419,-40.8 419,-92.8 677,-92.8 677,-40.8 419,-40.8"/>
</g>
<g id="clust18" class="cluster">
<title>cluster_AuthModule_imports</title>
<polygon fill="none" stroke="black" points="685,-40.8 685,-92.8 950,-92.8 950,-40.8 685,-40.8"/>
</g>
<g id="clust34" class="cluster">
<title>cluster_SharedModule</title>
<polygon fill="none" stroke="black" stroke-dasharray="1,5" points="966,-100.8 966,-168.8 1356,-168.8 1356,-100.8 966,-100.8"/>
</g>
<g id="clust35" class="cluster">
<title>cluster_SharedModule_declarations</title>
<polygon fill="none" stroke="black" points="1166,-108.8 1166,-160.8 1348,-160.8 1348,-108.8 1166,-108.8"/>
</g>
<g id="clust38" class="cluster">
<title>cluster_SharedModule_exports</title>
<polygon fill="none" stroke="black" points="974,-108.8 974,-160.8 1158,-160.8 1158,-108.8 974,-108.8"/>
</g>
<g id="clust41" class="cluster">
<title>cluster_UserModule</title>
<polygon fill="none" stroke="black" stroke-dasharray="1,5" points="1364,-32.8 1364,-160.8 2106,-160.8 2106,-32.8 1364,-32.8"/>
</g>
<g id="clust42" class="cluster">
<title>cluster_UserModule_declarations</title>
<polygon fill="none" stroke="black" points="1528,-40.8 1528,-92.8 2098,-92.8 2098,-40.8 1528,-40.8"/>
</g>
<g id="clust47" class="cluster">
<title>cluster_UserModule_imports</title>
<polygon fill="none" stroke="black" points="1372,-40.8 1372,-92.8 1520,-92.8 1520,-40.8 1372,-40.8"/>
</g>
<!-- AppComponent -->
<g id="node1" class="node">
<title>AppComponent</title>
<polygon fill="#ffffb3" stroke="black" points="386.94,-84.8 281.06,-84.8 281.06,-48.8 386.94,-48.8 386.94,-84.8"/>
<text text-anchor="middle" x="334" y="-62.6" font-family="Times,serif" font-size="14.00">AppComponent</text>
</g>
<!-- AppModule -->
<g id="node2" class="node">
<title>AppModule</title>
<polygon fill="#8dd3c7" stroke="black" points="234.66,-152.8 231.66,-156.8 210.66,-156.8 207.66,-152.8 151.34,-152.8 151.34,-116.8 234.66,-116.8 234.66,-152.8"/>
<text text-anchor="middle" x="193" y="-130.6" font-family="Times,serif" font-size="14.00">AppModule</text>
</g>
<!-- AppComponent&#45;&gt;AppModule -->
<g id="edge1" class="edge">
<title>AppComponent&#45;&gt;AppModule</title>
<path fill="none" stroke="black" d="M334,-85.09C334,-107.01 334,-140.8 334,-140.8 334,-140.8 244.92,-140.8 244.92,-140.8"/>
<polygon fill="black" stroke="black" points="244.92,-137.3 234.92,-140.8 244.92,-144.3 244.92,-137.3"/>
</g>
<!-- AppComponent  -->
<g id="node5" class="node">
<title>AppComponent </title>
<polygon fill="#80b1d3" stroke="black" points="247.44,-220.8 138.56,-220.8 138.56,-184.8 247.44,-184.8 247.44,-220.8"/>
<text text-anchor="middle" x="193" y="-198.6" font-family="Times,serif" font-size="14.00">AppComponent </text>
</g>
<!-- AppModule&#45;&gt;AppComponent  -->
<g id="edge4" class="edge">
<title>AppModule&#45;&gt;AppComponent </title>
<path fill="none" stroke="black" stroke-dasharray="1,5" d="M193,-153.02C193,-153.02 193,-174.53 193,-174.53"/>
<polygon fill="black" stroke="black" points="189.5,-174.53 193,-184.53 196.5,-174.53 189.5,-174.53"/>
</g>
<!-- AppRoutingModule -->
<g id="node3" class="node">
<title>AppRoutingModule</title>
<polygon fill="#8dd3c7" stroke="black" points="257.28,-84.8 254.28,-88.8 233.28,-88.8 230.28,-84.8 128.72,-84.8 128.72,-48.8 257.28,-48.8 257.28,-84.8"/>
<text text-anchor="middle" x="193" y="-62.6" font-family="Times,serif" font-size="14.00">AppRoutingModule</text>
</g>
<!-- AppRoutingModule&#45;&gt;AppModule -->
<g id="edge2" class="edge">
<title>AppRoutingModule&#45;&gt;AppModule</title>
<path fill="none" stroke="black" d="M193,-85.02C193,-85.02 193,-106.53 193,-106.53"/>
<polygon fill="black" stroke="black" points="189.5,-106.53 193,-116.53 196.5,-106.53 189.5,-106.53"/>
</g>
<!-- CoreModule -->
<g id="node4" class="node">
<title>CoreModule</title>
<polygon fill="#8dd3c7" stroke="black" points="110.27,-84.8 107.27,-88.8 86.27,-88.8 83.27,-84.8 23.73,-84.8 23.73,-48.8 110.27,-48.8 110.27,-84.8"/>
<text text-anchor="middle" x="67" y="-62.6" font-family="Times,serif" font-size="14.00">CoreModule</text>
</g>
<!-- CoreModule&#45;&gt;AppModule -->
<g id="edge3" class="edge">
<title>CoreModule&#45;&gt;AppModule</title>
<path fill="none" stroke="black" d="M67,-85.02C67,-105.17 67,-134.8 67,-134.8 67,-134.8 141.04,-134.8 141.04,-134.8"/>
<polygon fill="black" stroke="black" points="141.04,-138.3 151.04,-134.8 141.04,-131.3 141.04,-138.3"/>
</g>
<!-- AuthComponent -->
<g id="node6" class="node">
<title>AuthComponent</title>
<polygon fill="#ffffb3" stroke="black" points="668.83,-84.8 559.17,-84.8 559.17,-48.8 668.83,-48.8 668.83,-84.8"/>
<text text-anchor="middle" x="614" y="-62.6" font-family="Times,serif" font-size="14.00">AuthComponent</text>
</g>
<!-- AuthModule -->
<g id="node8" class="node">
<title>AuthModule</title>
<polygon fill="#8dd3c7" stroke="black" points="729.55,-152.8 726.55,-156.8 705.55,-156.8 702.55,-152.8 642.45,-152.8 642.45,-116.8 729.55,-116.8 729.55,-152.8"/>
<text text-anchor="middle" x="686" y="-130.6" font-family="Times,serif" font-size="14.00">AuthModule</text>
</g>
<!-- AuthComponent&#45;&gt;AuthModule -->
<g id="edge5" class="edge">
<title>AuthComponent&#45;&gt;AuthModule</title>
<path fill="none" stroke="black" d="M655.44,-85.02C655.44,-85.02 655.44,-106.53 655.44,-106.53"/>
<polygon fill="black" stroke="black" points="651.94,-106.53 655.44,-116.53 658.94,-106.53 651.94,-106.53"/>
</g>
<!-- LoginComponent -->
<g id="node7" class="node">
<title>LoginComponent</title>
<polygon fill="#ffffb3" stroke="black" points="541.27,-84.8 426.73,-84.8 426.73,-48.8 541.27,-48.8 541.27,-84.8"/>
<text text-anchor="middle" x="484" y="-62.6" font-family="Times,serif" font-size="14.00">LoginComponent</text>
</g>
<!-- LoginComponent&#45;&gt;AuthModule -->
<g id="edge6" class="edge">
<title>LoginComponent&#45;&gt;AuthModule</title>
<path fill="none" stroke="black" d="M484,-85.07C484,-103.36 484,-128.8 484,-128.8 484,-128.8 632.17,-128.8 632.17,-128.8"/>
<polygon fill="black" stroke="black" points="632.17,-132.3 642.17,-128.8 632.17,-125.3 632.17,-132.3"/>
</g>
<!-- AuthRoutingModule -->
<g id="node9" class="node">
<title>AuthRoutingModule</title>
<polygon fill="#8dd3c7" stroke="black" points="825.17,-84.8 822.17,-88.8 801.17,-88.8 798.17,-84.8 692.83,-84.8 692.83,-48.8 825.17,-48.8 825.17,-84.8"/>
<text text-anchor="middle" x="759" y="-62.6" font-family="Times,serif" font-size="14.00">AuthRoutingModule</text>
</g>
<!-- AuthRoutingModule&#45;&gt;AuthModule -->
<g id="edge7" class="edge">
<title>AuthRoutingModule&#45;&gt;AuthModule</title>
<path fill="none" stroke="black" d="M711.22,-85.02C711.22,-85.02 711.22,-106.53 711.22,-106.53"/>
<polygon fill="black" stroke="black" points="707.72,-106.53 711.22,-116.53 714.72,-106.53 707.72,-106.53"/>
</g>
<!-- SharedModule -->
<g id="node10" class="node">
<title>SharedModule</title>
<polygon fill="#8dd3c7" stroke="black" points="942.43,-84.8 939.43,-88.8 918.43,-88.8 915.43,-84.8 843.57,-84.8 843.57,-48.8 942.43,-48.8 942.43,-84.8"/>
<text text-anchor="middle" x="893" y="-62.6" font-family="Times,serif" font-size="14.00">SharedModule</text>
</g>
<!-- SharedModule&#45;&gt;AuthModule -->
<g id="edge8" class="edge">
<title>SharedModule&#45;&gt;AuthModule</title>
<path fill="none" stroke="black" d="M876.6,-85.07C876.6,-103.36 876.6,-128.8 876.6,-128.8 876.6,-128.8 739.73,-128.8 739.73,-128.8"/>
<polygon fill="black" stroke="black" points="739.73,-125.3 729.73,-128.8 739.73,-132.3 739.73,-125.3"/>
</g>
<!-- ConfirmModalComponent  -->
<g id="node12" class="node">
<title>ConfirmModalComponent </title>
<polygon fill="#fb8072" stroke="black" points="1150.32,-152.8 981.68,-152.8 981.68,-116.8 1150.32,-116.8 1150.32,-152.8"/>
<text text-anchor="middle" x="1066" y="-130.6" font-family="Times,serif" font-size="14.00">ConfirmModalComponent </text>
</g>
<!-- SharedModule&#45;&gt;ConfirmModalComponent  -->
<g id="edge10" class="edge">
<title>SharedModule&#45;&gt;ConfirmModalComponent </title>
<path fill="none" stroke="black" stroke-dasharray="5,2" d="M909.4,-85.09C909.4,-107.01 909.4,-140.8 909.4,-140.8 909.4,-140.8 971.29,-140.8 971.29,-140.8"/>
<polygon fill="black" stroke="black" points="971.29,-144.3 981.29,-140.8 971.29,-137.3 971.29,-144.3"/>
</g>
<!-- UserModule -->
<g id="node17" class="node">
<title>UserModule</title>
<polygon fill="#8dd3c7" stroke="black" points="1717.99,-152.8 1714.99,-156.8 1693.99,-156.8 1690.99,-152.8 1632.01,-152.8 1632.01,-116.8 1717.99,-116.8 1717.99,-152.8"/>
<text text-anchor="middle" x="1675" y="-130.6" font-family="Times,serif" font-size="14.00">UserModule</text>
</g>
<!-- SharedModule&#45;&gt;UserModule -->
<g id="edge15" class="edge">
<title>SharedModule&#45;&gt;UserModule</title>
<path fill="none" stroke="black" d="M942.54,-60.8C1062.74,-60.8 1360.06,-60.8 1360.06,-60.8 1360.06,-60.8 1360.06,-140.8 1360.06,-140.8 1360.06,-140.8 1621.87,-140.8 1621.87,-140.8"/>
<polygon fill="black" stroke="black" points="1621.87,-144.3 1631.87,-140.8 1621.87,-137.3 1621.87,-144.3"/>
</g>
<!-- ConfirmModalComponent -->
<g id="node11" class="node">
<title>ConfirmModalComponent</title>
<polygon fill="#ffffb3" stroke="black" points="1339.82,-152.8 1174.18,-152.8 1174.18,-116.8 1339.82,-116.8 1339.82,-152.8"/>
<text text-anchor="middle" x="1257" y="-130.6" font-family="Times,serif" font-size="14.00">ConfirmModalComponent</text>
</g>
<!-- ConfirmModalComponent&#45;&gt;SharedModule -->
<g id="edge9" class="edge">
<title>ConfirmModalComponent&#45;&gt;SharedModule</title>
<path fill="none" stroke="black" d="M1257,-116.53C1257,-98.24 1257,-72.8 1257,-72.8 1257,-72.8 952.47,-72.8 952.47,-72.8"/>
<polygon fill="black" stroke="black" points="952.47,-69.3 942.47,-72.8 952.47,-76.3 952.47,-69.3"/>
</g>
<!-- UserAddComponent -->
<g id="node13" class="node">
<title>UserAddComponent</title>
<polygon fill="#ffffb3" stroke="black" points="2089.88,-84.8 1958.12,-84.8 1958.12,-48.8 2089.88,-48.8 2089.88,-84.8"/>
<text text-anchor="middle" x="2024" y="-62.6" font-family="Times,serif" font-size="14.00">UserAddComponent</text>
</g>
<!-- UserAddComponent&#45;&gt;UserModule -->
<g id="edge11" class="edge">
<title>UserAddComponent&#45;&gt;UserModule</title>
<path fill="none" stroke="black" d="M2024,-85.09C2024,-107.01 2024,-140.8 2024,-140.8 2024,-140.8 1728.14,-140.8 1728.14,-140.8"/>
<polygon fill="black" stroke="black" points="1728.14,-137.3 1718.14,-140.8 1728.14,-144.3 1728.14,-137.3"/>
</g>
<!-- UserComponent -->
<g id="node14" class="node">
<title>UserComponent</title>
<polygon fill="#ffffb3" stroke="black" points="1939.77,-84.8 1832.23,-84.8 1832.23,-48.8 1939.77,-48.8 1939.77,-84.8"/>
<text text-anchor="middle" x="1886" y="-62.6" font-family="Times,serif" font-size="14.00">UserComponent</text>
</g>
<!-- UserComponent&#45;&gt;UserModule -->
<g id="edge12" class="edge">
<title>UserComponent&#45;&gt;UserModule</title>
<path fill="none" stroke="black" d="M1886,-85.07C1886,-103.36 1886,-128.8 1886,-128.8 1886,-128.8 1728.21,-128.8 1728.21,-128.8"/>
<polygon fill="black" stroke="black" points="1728.21,-125.3 1718.21,-128.8 1728.21,-132.3 1728.21,-125.3"/>
</g>
<!-- UserEditComponent -->
<g id="node15" class="node">
<title>UserEditComponent</title>
<polygon fill="#ffffb3" stroke="black" points="1814.6,-84.8 1683.4,-84.8 1683.4,-48.8 1814.6,-48.8 1814.6,-84.8"/>
<text text-anchor="middle" x="1749" y="-62.6" font-family="Times,serif" font-size="14.00">UserEditComponent</text>
</g>
<!-- UserEditComponent&#45;&gt;UserModule -->
<g id="edge13" class="edge">
<title>UserEditComponent&#45;&gt;UserModule</title>
<path fill="none" stroke="black" d="M1700.72,-85.02C1700.72,-85.02 1700.72,-106.53 1700.72,-106.53"/>
<polygon fill="black" stroke="black" points="1697.22,-106.53 1700.72,-116.53 1704.22,-106.53 1697.22,-106.53"/>
</g>
<!-- UserListComponent -->
<g id="node16" class="node">
<title>UserListComponent</title>
<polygon fill="#ffffb3" stroke="black" points="1665.55,-84.8 1536.45,-84.8 1536.45,-48.8 1665.55,-48.8 1665.55,-84.8"/>
<text text-anchor="middle" x="1601" y="-62.6" font-family="Times,serif" font-size="14.00">UserListComponent</text>
</g>
<!-- UserListComponent&#45;&gt;UserModule -->
<g id="edge14" class="edge">
<title>UserListComponent&#45;&gt;UserModule</title>
<path fill="none" stroke="black" d="M1648.89,-85.02C1648.89,-85.02 1648.89,-106.53 1648.89,-106.53"/>
<polygon fill="black" stroke="black" points="1645.39,-106.53 1648.89,-116.53 1652.39,-106.53 1645.39,-106.53"/>
</g>
<!-- UserRoutingModule -->
<g id="node18" class="node">
<title>UserRoutingModule</title>
<polygon fill="#8dd3c7" stroke="black" points="1511.6,-84.8 1508.6,-88.8 1487.6,-88.8 1484.6,-84.8 1380.4,-84.8 1380.4,-48.8 1511.6,-48.8 1511.6,-84.8"/>
<text text-anchor="middle" x="1446" y="-62.6" font-family="Times,serif" font-size="14.00">UserRoutingModule</text>
</g>
<!-- UserRoutingModule&#45;&gt;UserModule -->
<g id="edge16" class="edge">
<title>UserRoutingModule&#45;&gt;UserModule</title>
<path fill="none" stroke="black" d="M1446,-85.07C1446,-103.36 1446,-128.8 1446,-128.8 1446,-128.8 1621.93,-128.8 1621.93,-128.8"/>
<polygon fill="black" stroke="black" points="1621.93,-132.3 1631.93,-128.8 1621.93,-125.3 1621.93,-132.3"/>
</g>
</g>
</svg>
